<svg width="88" height="54" viewBox="0 0 88 54" fill="none" xmlns="http://www.w3.org/2000/svg">
<path d="M1.73337 49.5203H0.393555V52.7986H1.11477V51.8151H1.66353C2.399 51.8151 2.98908 51.4217 2.98908 50.6634V50.6535C2.98908 49.9836 2.51587 49.5203 1.73337 49.5203ZM2.25789 50.6777C2.25789 50.9585 2.04694 51.1737 1.68633 51.1737H1.11477V50.1717H1.67208C2.03269 50.1717 2.25789 50.3456 2.25789 50.6677V50.6777Z" fill="white"/>
<path d="M4.27468 50.7946V50.2886H3.56201V52.7986H4.27468V51.8707C4.27468 51.2706 4.56545 50.9856 5.03866 50.9856H5.07571V50.2415C4.65382 50.223 4.42006 50.4482 4.27468 50.7946Z" fill="white"/>
<path d="M6.80744 50.2415C6.02493 50.2415 5.44482 50.8273 5.44482 51.5485V51.5585C5.44482 52.2797 6.02066 52.8556 6.79889 52.8556C7.57712 52.8556 8.16151 52.2698 8.16151 51.5485V51.5386C8.16151 50.8174 7.58567 50.2415 6.80744 50.2415ZM7.45882 51.5571C7.45882 51.9277 7.21509 52.2413 6.80744 52.2413C6.3998 52.2413 6.14751 51.9177 6.14751 51.5485V51.5386C6.14751 51.168 6.39124 50.8544 6.79889 50.8544C7.20653 50.8544 7.45882 51.178 7.45882 51.5471V51.5571Z" fill="white"/>
<path d="M9.62087 49.6471H8.90821V50.2885H8.60889V50.8971H8.90821V52.0873C8.90821 52.6674 9.20325 52.8413 9.6394 52.8413C9.87743 52.8413 10.0513 52.7857 10.201 52.6959V52.1243C10.0984 52.1799 9.98006 52.2127 9.84893 52.2127C9.68929 52.2127 9.61945 52.1329 9.61945 51.969V50.8971H10.2095V50.2885H9.61945V49.6471H9.62087Z" fill="white"/>
<path d="M12.0228 50.2415C11.2403 50.2415 10.6602 50.8273 10.6602 51.5485V51.5585C10.6602 52.2797 11.236 52.8556 12.0142 52.8556C12.7925 52.8556 13.3768 52.2698 13.3768 51.5485V51.5386C13.3768 50.8174 12.801 50.2415 12.0228 50.2415ZM12.6741 51.5571C12.6741 51.9277 12.4304 52.2413 12.0228 52.2413C11.6151 52.2413 11.3628 51.9177 11.3628 51.5485V51.5386C11.3628 51.168 11.6066 50.8544 12.0142 50.8544C12.4219 50.8544 12.6741 51.178 12.6741 51.5471V51.5571Z" fill="white"/>
<path d="M15.2256 52.2427C14.8365 52.2427 14.5885 51.9334 14.5885 51.55V51.54C14.5885 51.1694 14.8408 50.8558 15.1971 50.8558C15.4494 50.8558 15.609 50.9642 15.7686 51.1323L16.2048 50.6634C15.971 50.4012 15.676 50.2415 15.2028 50.2415C14.4345 50.2415 13.8872 50.8316 13.8872 51.5485V51.5585C13.8872 52.2755 14.4402 52.8556 15.1942 52.8556C15.696 52.8556 15.9767 52.6632 16.2205 52.3966L15.8043 51.9747C15.6304 52.1386 15.4665 52.2413 15.2284 52.2413L15.2256 52.2427Z" fill="white"/>
<path d="M17.9691 50.2415C17.1866 50.2415 16.6064 50.8273 16.6064 51.5485V51.5585C16.6064 52.2797 17.1823 52.8556 17.9605 52.8556C18.7387 52.8556 19.3231 52.2698 19.3231 51.5485V51.5386C19.3231 50.8174 18.7473 50.2415 17.9691 50.2415ZM18.6204 51.5571C18.6204 51.9277 18.3767 52.2413 17.9691 52.2413C17.5614 52.2413 17.3091 51.9177 17.3091 51.5485V51.5386C17.3091 51.168 17.5529 50.8544 17.9605 50.8544C18.3682 50.8544 18.6204 51.178 18.6204 51.5471V51.5571Z" fill="white"/>
<path d="M20.7 49.3806H19.9873V52.8H20.7V49.3806Z" fill="white"/>
<path d="M38.8687 10.3878H32.1597V33.501H38.8687V10.3878Z" fill="white"/>
<path d="M50.6719 15.6131H63.2063V10.3878H50.6719H43.9614V15.6131V33.501H50.6719V15.6131Z" fill="white"/>
<path d="M15.0857 20.0045L22.8623 33.5039H30.1629L18.736 13.6647L16.8488 10.3907H13.3154L11.4354 13.6561L0 33.5039H7.3091L15.0857 20.0045Z" fill="white"/>
<path d="M65.146 33.5039L72.9226 20.0045L80.6992 33.5039H87.9998L76.5729 13.6647L74.6843 10.3907H71.1509L69.2723 13.6561L57.8369 33.5039H65.146Z" fill="white"/>
<path d="M35.5135 8.04742C37.7357 8.04742 39.5372 6.24595 39.5372 4.02371C39.5372 1.80148 37.7357 0 35.5135 0C33.2912 0 31.4897 1.80148 31.4897 4.02371C31.4897 6.24595 33.2912 8.04742 35.5135 8.04742Z" fill="white"/>
<path d="M88 38.1433H0V44.7526H88V38.1433Z" fill="white"/>
<path d="M86.5132 51.0853L86.928 51.426V51.4345L86.5132 51.7752V52.3923L87.2871 51.7324V51.138L86.5132 50.4767V51.0853Z" fill="white"/>
<path d="M61.7568 51.7324L62.5308 52.3923V51.7837L62.116 51.4445V51.4345L62.5308 51.0953V50.4767L61.7568 51.138V51.7324Z" fill="white"/>
<path d="M69.8996 50.8643C69.596 50.6405 69.2297 50.5294 68.8035 50.5294C68.6966 50.5294 68.5797 50.5393 68.4543 50.5579C68.45 50.5009 68.4486 50.4025 68.4486 50.2643L69.9067 50.0889L69.8497 49.573L68.4785 49.734C68.4857 49.6143 68.507 49.4575 68.5398 49.2608L68.0096 49.2067C67.9996 49.2665 67.984 49.4618 67.9611 49.791L67.019 49.8979L67.1059 50.4225L67.9497 50.3099L67.944 50.6762C67.6134 50.7774 67.344 50.9498 67.1359 51.1936C66.9278 51.4373 66.8237 51.701 66.8237 51.9875C66.8237 52.2269 66.8993 52.4265 67.0504 52.5833C67.2014 52.7415 67.4024 52.8199 67.6561 52.8199C67.8699 52.8199 68.0695 52.7686 68.259 52.6674L68.3047 52.8028L68.8178 52.5833C68.7622 52.5063 68.7166 52.4236 68.6824 52.3353C68.9803 52.0317 69.2226 51.6426 69.4079 51.1651C69.5404 51.2221 69.6473 51.3033 69.7286 51.4088C69.8098 51.5128 69.8511 51.624 69.8511 51.7395C69.8511 51.9276 69.7556 52.1072 69.5646 52.2768C69.3736 52.4464 69.1171 52.5804 68.7935 52.6788L69.0815 53.1805C69.4592 53.0266 69.767 52.8156 70.0036 52.5462C70.2403 52.2768 70.3586 52.0046 70.3586 51.7281C70.3586 51.376 70.206 51.0881 69.901 50.8643H69.8996ZM67.6704 52.2868C67.5692 52.2868 67.4822 52.2583 67.411 52.1984C67.3397 52.14 67.3041 52.063 67.3041 51.969C67.3041 51.8378 67.3696 51.6981 67.4993 51.5471C67.629 51.396 67.7801 51.2791 67.954 51.1964C67.984 51.5713 68.0296 51.8891 68.0894 52.15C67.9668 52.2398 67.8272 52.2854 67.6718 52.2854L67.6704 52.2868ZM68.5384 51.711C68.4942 51.4245 68.4686 51.2064 68.46 51.0539C68.5698 51.0382 68.661 51.0311 68.7337 51.0311C68.7665 51.0311 68.8192 51.0354 68.8919 51.0425C68.7992 51.3147 68.6809 51.5385 68.537 51.711H68.5384Z" fill="white"/>
<path d="M75.0107 49.8467C75.2217 50.1959 75.3956 50.575 75.5296 50.9827C75.6635 51.3903 75.732 51.7737 75.732 52.1357L76.2907 52.006C76.2023 51.1694 75.9386 50.3797 75.5011 49.6414L75.0107 49.8481V49.8467Z" fill="white"/>
<path d="M73.9534 52.6404C73.8465 52.6404 73.7197 52.4479 73.5729 52.0631C73.4275 51.6783 73.3534 51.2079 73.3534 50.652C73.3534 50.2543 73.3919 49.9051 73.4717 49.603L72.9215 49.5018C72.8659 49.888 72.8374 50.2672 72.8374 50.6392C72.8374 51.3775 72.9443 51.9861 73.1567 52.4679C73.3705 52.9496 73.6256 53.1891 73.9235 53.1891C74.3312 53.1891 74.6875 52.7558 74.9925 51.8892L74.5079 51.6355C74.3012 52.304 74.1145 52.6375 73.952 52.6375L73.9534 52.6404Z" fill="white"/>
<path d="M81.7198 49.6557C81.2723 49.3678 80.7092 49.1013 80.0322 48.8547L79.75 49.3507C80.4855 49.573 81.0499 49.8353 81.4433 50.1346L81.7198 49.6557Z" fill="white"/>
<path d="M81.744 51.2321C81.4247 51.004 81.0271 50.8886 80.5482 50.8886C80.0279 50.8886 79.5077 50.9969 78.9888 51.215C79.2525 50.5821 79.4849 50.1417 79.6873 49.8923L79.177 49.6329C78.8848 50.1189 78.5769 50.776 78.252 51.6041L78.6867 51.959C79.3651 51.5956 79.9766 51.4145 80.5225 51.4145C80.8546 51.4145 81.1325 51.4787 81.3563 51.6084C81.5801 51.7381 81.6913 51.9177 81.6913 52.1457C81.6913 52.7372 81.3022 53.0337 80.5211 53.0337C80.3529 53.0337 80.159 53.0138 79.9353 52.9767C79.7129 52.9382 79.3266 52.8356 78.7807 52.6688L78.7351 53.3003C79.4649 53.4727 80.0807 53.5597 80.5824 53.5597C81.0841 53.5597 81.4661 53.43 81.7682 53.172C82.0704 52.914 82.2215 52.5805 82.2215 52.1742C82.2215 51.768 82.0619 51.463 81.7426 51.2349L81.744 51.2321Z" fill="white"/>
</svg>
