<svg width="17" height="15" viewBox="0 0 17 15" fill="none" xmlns="http://www.w3.org/2000/svg">
<path d="M12.4583 10.6667L15.625 7.50002M15.625 7.50002L12.4583 4.33335M15.625 7.50002H4.54167M9.29167 10.6667V11.4584C9.29167 12.0882 9.04144 12.6923 8.59605 13.1377C8.15065 13.5831 7.54656 13.8334 6.91667 13.8334H3.75C3.12011 13.8334 2.51602 13.5831 2.07062 13.1377C1.62522 12.6923 1.375 12.0882 1.375 11.4584V3.54169C1.375 2.9118 1.62522 2.30771 2.07062 1.86231C2.51602 1.41691 3.12011 1.16669 3.75 1.16669H6.91667C7.54656 1.16669 8.15065 1.41691 8.59605 1.86231C9.04144 2.30771 9.29167 2.9118 9.29167 3.54169V4.33335" stroke="#E5E7EB" stroke-width="2" stroke-linecap="round" stroke-linejoin="round"/>
</svg>
