<svg width="777" height="770" viewBox="0 0 777 770" fill="none" xmlns="http://www.w3.org/2000/svg">
<g filter="url(#filter0_d_221_4032)">
<g clip-path="url(#clip0_221_4032)">
<rect x="50" y="25" width="677" height="670" rx="32" fill="#252931"/>
<g filter="url(#filter1_f_221_4032)">
<path d="M35.2315 -14.4789C425.916 1.72975 548.608 339.875 684.366 329.26C855.022 315.917 820.949 -1.83293 681.158 -122C516.383 -263.644 -229.529 -25.4632 35.2315 -14.4789Z" fill="#5521B5"/>
</g>
<g filter="url(#filter2_f_221_4032)">
<path d="M-57.7685 792.521C332.916 808.73 455.608 1146.87 591.366 1136.26C762.022 1122.92 727.949 805.167 588.158 685C423.383 543.356 -322.529 781.537 -57.7685 792.521Z" fill="#5521B5"/>
</g>
</g>
</g>
<defs>
<filter id="filter0_d_221_4032" x="0" y="0" width="777" height="770" filterUnits="userSpaceOnUse" color-interpolation-filters="sRGB">
<feFlood flood-opacity="0" result="BackgroundImageFix"/>
<feColorMatrix in="SourceAlpha" type="matrix" values="0 0 0 0 0 0 0 0 0 0 0 0 0 0 0 0 0 0 127 0" result="hardAlpha"/>
<feOffset dy="25"/>
<feGaussianBlur stdDeviation="25"/>
<feColorMatrix type="matrix" values="0 0 0 0 0 0 0 0 0 0 0 0 0 0 0 0 0 0 0.25 0"/>
<feBlend mode="normal" in2="BackgroundImageFix" result="effect1_dropShadow_221_4032"/>
<feBlend mode="normal" in="SourceGraphic" in2="effect1_dropShadow_221_4032" result="shape"/>
</filter>
<filter id="filter1_f_221_4032" x="-221.069" y="-366.844" width="1220.67" height="896.349" filterUnits="userSpaceOnUse" color-interpolation-filters="sRGB">
<feFlood flood-opacity="0" result="BackgroundImageFix"/>
<feBlend mode="normal" in="SourceGraphic" in2="BackgroundImageFix" result="shape"/>
<feGaussianBlur stdDeviation="100" result="effect1_foregroundBlur_221_4032"/>
</filter>
<filter id="filter2_f_221_4032" x="-314.069" y="440.156" width="1220.67" height="896.349" filterUnits="userSpaceOnUse" color-interpolation-filters="sRGB">
<feFlood flood-opacity="0" result="BackgroundImageFix"/>
<feBlend mode="normal" in="SourceGraphic" in2="BackgroundImageFix" result="shape"/>
<feGaussianBlur stdDeviation="100" result="effect1_foregroundBlur_221_4032"/>
</filter>
<clipPath id="clip0_221_4032">
<rect x="50" y="25" width="677" height="670" rx="32" fill="white"/>
</clipPath>
</defs>
</svg>
